<svg width="20" height="20" viewBox="0 0 20 20" fill="none" xmlns="http://www.w3.org/2000/svg">
<g opacity="0.7">
<path d="M13.4058 0H6.59392C5.39945 0 4.42761 0.964173 4.42761 2.14931V17.851C4.42761 19.0355 5.39945 20 6.59392 20H13.4054C14.5999 20 15.5721 19.0355 15.5721 17.851V2.14931C15.5724 0.964173 14.6003 0 13.4058 0ZM14.8562 17.851C14.8562 18.6409 14.2056 19.2838 13.4058 19.2838H6.59392C5.79438 19.2838 5.14383 18.6409 5.14383 17.851V2.14931H5.14416C5.14416 1.35911 5.79472 0.716547 6.59425 0.716547H13.4058C14.2053 0.716547 14.8562 1.35911 14.8562 2.14931C14.8565 2.14931 14.8565 17.851 14.8562 17.851ZM14.1197 2.10465H5.88104C5.78205 2.10465 5.70207 2.18464 5.70207 2.28362V16.199C5.70207 16.2976 5.78205 16.3783 5.88104 16.3783H14.1197C14.2186 16.3783 14.299 16.298 14.299 16.199V2.28362C14.2986 2.18464 14.2186 2.10465 14.1197 2.10465ZM13.9407 16.0197H6.05967V2.46259H13.9404C13.9404 2.46259 13.9404 16.0197 13.9407 16.0197ZM10.0004 16.6766C9.39678 16.6766 8.90553 17.1675 8.90553 17.771C8.90553 18.3746 9.39678 18.8655 10.0004 18.8655C10.6039 18.8655 11.0945 18.3743 11.0945 17.771C11.0945 17.1675 10.6039 16.6766 10.0004 16.6766ZM10.0004 18.5072C9.59408 18.5072 9.26381 18.177 9.26381 17.771C9.26381 17.3651 9.59408 17.0345 10.0004 17.0345C10.4063 17.0345 10.7366 17.3651 10.7366 17.771C10.7366 18.177 10.4063 18.5072 10.0004 18.5072ZM8.81555 1.4011C8.81555 1.32811 8.88687 1.26912 8.97485 1.26912H11.0248C11.1128 1.26912 11.1838 1.32811 11.1838 1.4011C11.1838 1.47409 11.1132 1.53308 11.0252 1.53308H8.97519C8.88754 1.53308 8.81588 1.47409 8.81555 1.4011Z" fill="white"/>
</g>
</svg>
