<svg width="20" height="20" viewBox="0 0 20 20" fill="none" xmlns="http://www.w3.org/2000/svg">
<g opacity="0.7" clip-path="url(#clip0)">
<path d="M15.0495 4.76245L6.82413 9.82846C6.35866 10.1158 6.13839 10.6833 6.28835 11.2083L7.17772 14.3333C7.2537 14.5997 7.49081 14.7768 7.76362 14.7768C7.77882 14.7768 7.79417 14.7763 7.80956 14.7751C8.1012 14.754 8.33198 14.5367 8.37077 14.2472L8.60202 12.5337C8.63319 12.3032 8.74428 12.0887 8.91456 11.9302L15.7022 5.62065C15.9074 5.43046 15.9345 5.11901 15.7654 4.89624C15.5961 4.67327 15.2885 4.61561 15.0495 4.76245ZM8.37182 11.3468C8.06682 11.6307 7.86811 12.0143 7.81233 12.4271L7.70018 13.2582L7.0546 10.9898C7.00214 10.806 7.0794 10.6073 7.24229 10.5068L13.268 6.79557L8.37182 11.3468Z" fill="white"/>
<path d="M19.6746 1.46023C19.4176 1.24241 19.063 1.18245 18.7489 1.30378L0.589073 8.30933C0.229425 8.44804 -0.00182509 8.78667 1.08522e-05 9.17202C0.00188585 9.55773 0.236534 9.89449 0.598292 10.03L4.84009 11.6132L6.49474 16.9345C6.5856 17.227 6.81493 17.4543 7.10814 17.5425C7.40118 17.6307 7.71767 17.5676 7.95423 17.3742L10.4206 15.3635C10.5391 15.2669 10.7082 15.2622 10.8319 15.352L15.2804 18.5817C15.4405 18.698 15.6293 18.7579 15.8204 18.7579C15.9323 18.7579 16.045 18.7374 16.1531 18.6956C16.4455 18.5825 16.6582 18.3318 16.7218 18.0252L19.9808 2.34902C20.0492 2.01894 19.9319 1.67839 19.6746 1.46023ZM19.2006 2.1871L15.9417 17.8632C15.9299 17.9198 15.8892 17.9434 15.8659 17.9524C15.8424 17.9615 15.7961 17.9715 15.7488 17.9371L11.3001 14.7072C11.1012 14.5628 10.8674 14.4911 10.634 14.4911C10.3794 14.4911 10.1251 14.5765 9.91732 14.7458L7.45036 16.7569C7.40646 16.7928 7.36087 16.7864 7.33767 16.7794C7.31431 16.7724 7.27263 16.7525 7.25567 16.698L5.54298 11.1899C5.50638 11.0722 5.41732 10.9781 5.30185 10.935L0.877433 9.28366C0.811183 9.25886 0.797081 9.20718 0.796886 9.16816C0.796691 9.12949 0.810284 9.07804 0.875909 9.05273L19.0358 2.04722C19.0359 2.04718 19.036 2.04714 19.0361 2.0471C19.0951 2.02433 19.1387 2.0505 19.1595 2.06808C19.1804 2.08585 19.2136 2.12491 19.2006 2.1871Z" fill="white"/>
<path d="M16.6985 9.84931C16.4834 9.80259 16.2713 9.93912 16.2246 10.1542L16.1641 10.4331C16.1174 10.6481 16.2539 10.8602 16.4689 10.9069C16.4974 10.9131 16.5258 10.9161 16.5538 10.9161C16.7372 10.9161 16.9023 10.7886 16.9428 10.6021L17.0033 10.3232C17.05 10.1082 16.9135 9.89603 16.6985 9.84931Z" fill="white"/>
<path d="M16.3001 11.6844C16.0847 11.6378 15.8728 11.7742 15.8261 11.9893L14.9098 16.21C14.8631 16.4251 14.9996 16.6372 15.2146 16.6839C15.2431 16.6901 15.2715 16.693 15.2995 16.693C15.4829 16.693 15.6479 16.5656 15.6885 16.3791L16.6049 12.1583C16.6515 11.9433 16.5151 11.7311 16.3001 11.6844Z" fill="white"/>
</g>
<defs>
<clipPath id="clip0">
<rect width="20" height="20" fill="white"/>
</clipPath>
</defs>
</svg>
